<?xml version="1.0" encoding="UTF-8" standalone="no"?>
<svg
   xmlns:dc="http://purl.org/dc/elements/1.1/"
   xmlns:cc="http://creativecommons.org/ns#"
   xmlns:rdf="http://www.w3.org/1999/02/22-rdf-syntax-ns#"
   xmlns:svg="http://www.w3.org/2000/svg"
   xmlns="http://www.w3.org/2000/svg"
   xmlns:sodipodi="http://sodipodi.sourceforge.net/DTD/sodipodi-0.dtd"
   xmlns:inkscape="http://www.inkscape.org/namespaces/inkscape"
   id="レイヤー_1"
   data-name="レイヤー 1"
   viewBox="0 0 545.61584 639.5"
   version="1.1"
   sodipodi:docname="logo_notext.svg"
   width="545.61584"
   height="639.5"
   inkscape:version="0.92.2 5c3e80d, 2017-08-06">
  <metadata
     id="metadata174">
    <rdf:RDF>
      <cc:Work
         rdf:about="">
        <dc:format>image/svg+xml</dc:format>
        <dc:type
           rdf:resource="http://purl.org/dc/dcmitype/StillImage" />
        <dc:title>logoc2</dc:title>
      </cc:Work>
    </rdf:RDF>
  </metadata>
  <sodipodi:namedview
     pagecolor="#ffffff"
     bordercolor="#666666"
     borderopacity="1"
     objecttolerance="10"
     gridtolerance="10"
     guidetolerance="10"
     inkscape:pageopacity="0"
     inkscape:pageshadow="2"
     inkscape:window-width="1440"
     inkscape:window-height="855"
     id="namedview172"
     showgrid="false"
     fit-margin-top="0"
     fit-margin-left="0"
     fit-margin-right="0"
     fit-margin-bottom="0"
     inkscape:zoom="0.642"
     inkscape:cx="273"
     inkscape:cy="349.75"
     inkscape:window-x="0"
     inkscape:window-y="1"
     inkscape:window-maximized="1"
     inkscape:current-layer="レイヤー_1" />
  <defs
     id="defs121">
    <style
       id="style119">.cls-1{fill:#6c0;}</style>
  </defs>
  <title
     id="title123">logoc2</title>
  <path
     class="cls-1"
     d="M 331.3,31.06 H 190.19 A 15.53,15.53 0 1 1 190.19,0 H 331.3 a 15.53,15.53 0 1 1 0,31.06 z"
     id="path125"
     inkscape:connector-curvature="0"
     style="fill:#66cc00" />
  <path
     class="cls-1"
     d="M 478.42,89.9 H 121.13 a 15.54,15.54 0 0 1 0,-31.07 h 357.29 a 15.54,15.54 0 1 1 0,31.07 z"
     id="path127"
     inkscape:connector-curvature="0"
     style="fill:#66cc00" />
  <path
     class="cls-1"
     d="M 459.41,149.23 H 31.06 a 15.53,15.53 0 0 1 0,-31.06 h 428.35 a 15.53,15.53 0 1 1 0,31.06 z"
     id="path129"
     inkscape:connector-curvature="0"
     style="fill:#66cc00" />
  <path
     class="cls-1"
     d="M 475.42,208.57 H 272.26 a 15.54,15.54 0 1 1 0,-31.07 h 203.16 a 15.54,15.54 0 1 1 0,31.07 z"
     id="path131"
     inkscape:connector-curvature="0"
     style="fill:#66cc00" />
  <path
     class="cls-1"
     d="M 218.21,208.57 H 16.05 a 15.54,15.54 0 1 1 0,-31.07 h 202.16 a 15.54,15.54 0 1 1 0,31.07 z"
     id="path133"
     inkscape:connector-curvature="0"
     style="fill:#66cc00" />
  <path
     class="cls-1"
     d="M 530.47,267.9 H 123.14 a 15.54,15.54 0 1 1 0,-31.07 h 407.33 a 15.54,15.54 0 0 1 0,31.07 z"
     id="path135"
     inkscape:connector-curvature="0"
     style="fill:#66cc00" />
  <path
     class="cls-1"
     d="M 515.45,327.23 H 84.1 a 15.53,15.53 0 0 1 0,-31.06 h 431.35 a 15.53,15.53 0 1 1 0,31.06 z"
     id="path137"
     inkscape:connector-curvature="0"
     style="fill:#66cc00" />
  <path
     class="cls-1"
     d="M 427.38,386.57 H 269 a 15.54,15.54 0 1 1 0,-31.07 h 158.4 a 15.54,15.54 0 1 1 0,31.07 z"
     id="path139"
     inkscape:connector-curvature="0"
     style="fill:#66cc00" />
  <path
     class="cls-1"
     d="M 208.79,386.57 H 65.09 a 15.54,15.54 0 1 1 0,-31.07 h 143.7 a 15.54,15.54 0 0 1 0,31.07 z"
     id="path141"
     inkscape:connector-curvature="0"
     style="fill:#66cc00" />
  <path
     class="cls-1"
     d="m 136.16,31.06 v 0 a 15.53,15.53 0 1 1 15.53,-15.53 15.53,15.53 0 0 1 -15.54,15.53 z"
     id="path143"
     inkscape:connector-curvature="0"
     style="fill:#66cc00" />
  <path
     class="cls-1"
     d="m 443.41,31.06 v 0 A 15.53,15.53 0 1 1 458.95,15.53 15.53,15.53 0 0 1 443.4,31.06 Z"
     id="path145"
     inkscape:connector-curvature="0"
     style="fill:#66cc00" />
  <path
     class="cls-1"
     d="m 389.36,31.06 v 0 A 15.53,15.53 0 1 1 404.9,15.53 15.53,15.53 0 0 1 389.35,31.06 Z"
     id="path147"
     inkscape:connector-curvature="0"
     style="fill:#66cc00" />
  <path
     class="cls-1"
     d="m 67.06,89.86 v 0 A 15.53,15.53 0 1 1 82.59,74.33 15.53,15.53 0 0 1 67.06,89.86 Z"
     id="path149"
     inkscape:connector-curvature="0"
     style="fill:#66cc00" />
  <path
     class="cls-1"
     d="m 513.46,149.16 a 15.54,15.54 0 0 1 0,-31.07 v 0 a 15.54,15.54 0 1 1 0,31.07 z"
     id="path151"
     inkscape:connector-curvature="0"
     style="fill:#66cc00" />
  <path
     class="cls-1"
     d="m 529.07,208.6 a 15.54,15.54 0 1 1 0,-31.07 v 0 a 15.54,15.54 0 0 1 0,31.07 z"
     id="path153"
     inkscape:connector-curvature="0"
     style="fill:#66cc00" />
  <path
     class="cls-1"
     d="m 69.59,267.86 v 0 a 15.54,15.54 0 1 1 15.54,-15.54 15.54,15.54 0 0 1 -15.55,15.54 z"
     id="path155"
     inkscape:connector-curvature="0"
     style="fill:#66cc00" />
  <path
     class="cls-1"
     d="m 15.54,267.86 v 0 a 15.54,15.54 0 1 1 15.54,-15.54 15.53,15.53 0 0 1 -15.55,15.54 z"
     id="path157"
     inkscape:connector-curvature="0"
     style="fill:#66cc00" />
  <path
     class="cls-1"
     d="m 30.05,327.3 a 16.36,16.36 0 0 1 -3,-0.29 17.78,17.78 0 0 1 -2.91,-0.9 16.08,16.08 0 0 1 -2.68,-1.43 14.58,14.58 0 0 1 -2.35,-1.92 15.69,15.69 0 0 1 -4.56,-11 16.4,16.4 0 0 1 0.31,-3 16,16 0 0 1 2.31,-5.59 13.78,13.78 0 0 1 1.94,-2.35 14.76,14.76 0 0 1 2.35,-1.95 16.73,16.73 0 0 1 2.68,-1.41 16,16 0 0 1 2.91,-0.9 15.55,15.55 0 0 1 6.08,0 15.37,15.37 0 0 1 2.89,0.9 14.53,14.53 0 0 1 2.68,1.41 15.37,15.37 0 0 1 2.37,1.95 14.21,14.21 0 0 1 1.93,2.33 16,16 0 0 1 1.43,2.68 17.78,17.78 0 0 1 0.9,2.91 16.36,16.36 0 0 1 0.29,3 15.63,15.63 0 0 1 -4.62,11.01 15.19,15.19 0 0 1 -2.37,1.92 14,14 0 0 1 -2.68,1.43 17,17 0 0 1 -2.89,0.9 16.58,16.58 0 0 1 -3.01,0.3 z"
     id="path159"
     inkscape:connector-curvature="0"
     style="fill:#66cc00" />
  <path
     class="cls-1"
     d="m 481.41,386.54 a 15.54,15.54 0 0 1 0,-31.07 v 0 a 15.54,15.54 0 1 1 0,31.07 z"
     id="path161"
     inkscape:connector-curvature="0"
     style="fill:#66cc00" />
  <path
     class="cls-1"
     d="m 274.26,446.4 a 15.53,15.53 0 1 1 0,-31.06 v 0 a 15.53,15.53 0 1 1 0,31.06 z"
     id="path163"
     inkscape:connector-curvature="0"
     style="fill:#66cc00" />
  <path
     class="cls-1"
     d="M 273.85,639.5 A 15.53,15.53 0 0 1 258.32,623.97 V 497.75 a 15.53,15.53 0 1 1 31.06,0 v 126.22 a 15.53,15.53 0 0 1 -15.53,15.53 z"
     id="path165"
     inkscape:connector-curvature="0"
     style="fill:#66cc00" />
  <path
     class="cls-1"
     d="m 273.86,513.3 a 15.54,15.54 0 0 1 -8.8,-28.35 l 99,-68 a 15.532943,15.532943 0 0 1 17.57,25.62 l -99,68 a 15.51,15.51 0 0 1 -8.77,2.73 z"
     id="path167"
     inkscape:connector-curvature="0"
     style="fill:#66cc00" />
  <path
     class="cls-1"
     d="m 273.84,513.3 a 15.51,15.51 0 0 1 -8.78,-2.73 l -99,-68 a 15.532943,15.532943 0 0 1 17.57,-25.62 l 99,68 a 15.54,15.54 0 0 1 -8.8,28.35 z"
     id="path169"
     inkscape:connector-curvature="0"
     style="fill:#66cc00" />
</svg>
