<svg id="レイヤー_1" data-name="レイヤー 1" xmlns="http://www.w3.org/2000/svg" viewBox="0 0 1000 1000"><defs><style>.cls-1{fill:#6c0;}</style></defs><title>logoc2</title><path class="cls-1" d="M444.91,269.64h72.68a8,8,0,0,0,0-16H444.91a8,8,0,1,0,0,16Z"/><path class="cls-1" d="M409.35,299.94h184a8,8,0,0,0,0-16h-184a8,8,0,0,0,0,16Z"/><path class="cls-1" d="M363,330.5H583.57a8,8,0,0,0,0-16H363a8,8,0,0,0,0,16Z"/><path class="cls-1" d="M591.81,361.06a8,8,0,0,0,0-16H487.18a8,8,0,0,0,0,16Z"/><path class="cls-1" d="M355.23,361.06H459.35a8,8,0,0,0,0-16H355.23a8,8,0,0,0,0,16Z"/><path class="cls-1" d="M628.16,383.62a8,8,0,0,0-8-8H410.38a8,8,0,0,0,0,16H620.16A8,8,0,0,0,628.16,383.62Z"/><path class="cls-1" d="M620.43,414.18a8,8,0,0,0-8-8H390.28a8,8,0,0,0,0,16H612.43A8,8,0,0,0,620.43,414.18Z"/><path class="cls-1" d="M575.07,444.73a8,8,0,0,0-8-8H485.49a8,8,0,0,0,0,16h81.58A8,8,0,0,0,575.07,444.73Z"/><path class="cls-1" d="M380.48,452.73h74a8,8,0,0,0,0-16h-74a8,8,0,0,0,0,16Z"/><path class="cls-1" d="M417.08,269.64h0a8,8,0,1,0-8-8A8,8,0,0,0,417.08,269.64Z"/><path class="cls-1" d="M575.32,269.64h0a8,8,0,1,0-8-8A8,8,0,0,0,575.32,269.64Z"/><path class="cls-1" d="M547.49,269.64h0a8,8,0,1,0-8-8A8,8,0,0,0,547.49,269.64Z"/><path class="cls-1" d="M381.5,299.93h0a8,8,0,1,0-8-8A8,8,0,0,0,381.5,299.93Z"/><path class="cls-1" d="M611.41,330.46a8,8,0,0,0,0-16h0a8,8,0,1,0,0,16Z"/><path class="cls-1" d="M611.44,353.07a8,8,0,1,0,8-8h0A8,8,0,0,0,611.44,353.07Z"/><path class="cls-1" d="M382.8,391.6h0a8,8,0,1,0-8-8A8,8,0,0,0,382.8,391.6Z"/><path class="cls-1" d="M355,391.6h0a8,8,0,1,0-8-8A8,8,0,0,0,355,391.6Z"/><path class="cls-1" d="M369.09,409.77a7.26,7.26,0,0,0-1-1.21,7.83,7.83,0,0,0-1.22-1,7.57,7.57,0,0,0-1.38-.73,7.87,7.87,0,0,0-4.62-.46,8.11,8.11,0,0,0-1.5.46,8.29,8.29,0,0,0-1.38.73,8.3,8.3,0,0,0-2.21,2.21,7.61,7.61,0,0,0-.73,1.38,7.41,7.41,0,0,0-.46,1.5,7.51,7.51,0,0,0-.16,1.56,8.06,8.06,0,0,0,2.35,5.66,7.26,7.26,0,0,0,1.21,1,8.34,8.34,0,0,0,1.38.74,8.94,8.94,0,0,0,1.5.46,8.24,8.24,0,0,0,1.56.15,8.35,8.35,0,0,0,1.57-.15,8.56,8.56,0,0,0,1.49-.46,7.61,7.61,0,0,0,1.38-.74,7.77,7.77,0,0,0,1.22-1,8.05,8.05,0,0,0,2.34-5.66,8.24,8.24,0,0,0-.15-1.56,8.94,8.94,0,0,0-.46-1.5A8.34,8.34,0,0,0,369.09,409.77Z"/><path class="cls-1" d="M594.89,436.72a8,8,0,1,0,8,8,8,8,0,0,0-8-8Z"/><path class="cls-1" d="M488.21,467.55a8,8,0,1,0,8,8,8,8,0,0,0-8-8Z"/><path class="cls-1" d="M280.17,674a7.23,7.23,0,0,0-6,3.08c-9.69,12.76-22.45,18-38.44,18-23.62,0-42.83-19.95-42.83-47.67,0-26.85,20.24-46.65,42.83-46.65,13.2,0,23.91,2.78,35.06,15a7.15,7.15,0,0,0,5.28,2.49c4.55,0,9.1-4.1,9.1-8.65a7.61,7.61,0,0,0-2.2-5c-12.32-13.35-29.64-18.92-47.24-18.92-34.33,0-59,27.43-59,61.76,0,37.4,25.38,63.22,59,63.22,24.06,0,40.93-9.24,51.64-23.32a8.24,8.24,0,0,0,1.76-4.84C289.12,677.83,284.57,674,280.17,674Z"/><path class="cls-1" d="M382.27,675c0-2.78.14-5.57.14-8.21,0-5.87.15-11.74.3-16.87v-.44c0-22.45-11.89-35.5-38.15-35.5-13.93,0-24.93,2.49-35.35,10.27A7.1,7.1,0,0,0,306,630c0,4,3.82,7.63,8.22,7.63a8,8,0,0,0,5.13-1.91c7.19-5.57,15.26-8.22,24.94-8.22,11.3,0,23.18,4,23.18,16.29,0,2.49-.88,5.28-20.25,6.89-13.78,1.18-30.07,2.64-39.16,11.15a26.82,26.82,0,0,0-8.81,19.66c0,14.67,12.62,29.34,37.41,29.34,12,0,25.67-4.55,33-13.5.88,9.54,4.84,12.77,8.8,12.77s7.78-3.09,7.78-7.19a7.69,7.69,0,0,0-1.18-4.11C384,697.05,382.27,694,382.27,675ZM368.33,672v.44c0,12.18-11.74,24.36-31.25,24.36-16,0-22.74-8.07-22.74-15.7a12.4,12.4,0,0,1,4-9.24c6.6-6,18.77-6.16,28.6-6.9,8.22-.58,16.87-1.32,21.86-4.69C368.62,664.92,368.33,668.88,368.33,672Z"/><path class="cls-1" d="M492.14,613.87c-10.86,0-21.57,5.87-26.41,14.08-4.11-8.94-14.08-14.08-25.82-14.08-8.8,0-19.07,5.43-22.15,12.47,0-.29.15-3.81.15-5.13v-.59c0-3.67-3.67-5.87-7.48-5.87s-7.34,2.2-7.34,7v81.13c0,4.69,3.82,7,7.63,7s7.63-2.35,7.63-7V650.55c0-10.57,9.53-22.45,21.27-22.45,11.15,0,15.7,8.36,15.7,21.27v53.55c0,4.69,3.81,7,7.63,7,3.66,0,7.48-2.35,7.48-7V649.23c0-9.83,10.41-21.13,21.71-21.13,10.12,0,16.14,6.46,16.14,19.95v54.87c0,4.69,3.81,7,7.62,7s7.63-2.35,7.63-7V648.05C523.53,627.07,512.38,613.87,492.14,613.87Z"/><path class="cls-1" d="M590.86,614.17c-14.08,0-24.5,5-31.54,14.81v-7.92c0-4.11-3.81-6.31-7.63-6.31s-7.33,2.06-7.33,6.6v117.8c0,4.84,3.81,7.19,7.63,7.19s7.62-2.35,7.62-7.19V695.44c7.19,10.26,17.31,15,31.25,15C616.53,710.4,634,690,634,662.28S616.53,614.17,590.86,614.17Zm-.29,82c-19.81,0-31.69-14.38-31.69-33.89s11.74-33.74,31.69-33.74c16.28,0,28.31,14.38,28.31,33.74S606.85,696.17,590.57,696.17Z"/><path class="cls-1" d="M695.16,613.87c-11.74,0-24.5,6.16-28.31,14.82V591.13c0-4.54-3.82-6.75-7.63-6.75-4,0-7.78,2.21-7.78,6.75V703.06c0,4.55,4,6.9,7.78,6.9s7.63-2.2,7.63-6.75V657.88c0-17,11.88-29.34,28-29.34,14.52,0,22.44,9,22.44,25.67v49.15c0,4.4,3.81,6.6,7.77,6.6s7.63-2.2,7.63-6.6V653.92C732.71,628.39,720.1,613.87,695.16,613.87Z"/><path class="cls-1" d="M815,618c-3.22-1.17-10.56-3.37-17-3.37-16.87,0-25.38,7.18-28.61,11.73v-5.72c0-4-3.67-5.87-7.33-5.87-3.82,0-7.78,2.06-7.78,6.6v81.71c0,4.55,4,6.9,7.78,6.9s7.63-2.2,7.63-6.75v-46.8c0-15.4,7.48-27.14,27.72-27.28,6.31,0,12.18,2.49,14.38,3.37a7.1,7.1,0,0,0,2.34.44c4,0,6.61-3.52,6.61-7.33C820.73,622.67,819.11,619.59,815,618Z"/><path class="cls-1" d="M545.6,470.47a8,8,0,0,0-11.13-2.07L488,500.3l-46.47-31.9a8,8,0,0,0-9.06,13.2L480,514.21V575a8,8,0,0,0,16,0V514.21l47.53-32.61A8,8,0,0,0,545.6,470.47Z"/></svg>
