<?xml version="1.0" encoding="UTF-8" standalone="no"?>
<svg
   xmlns:dc="http://purl.org/dc/elements/1.1/"
   xmlns:cc="http://creativecommons.org/ns#"
   xmlns:rdf="http://www.w3.org/1999/02/22-rdf-syntax-ns#"
   xmlns:svg="http://www.w3.org/2000/svg"
   xmlns="http://www.w3.org/2000/svg"
   xmlns:sodipodi="http://sodipodi.sourceforge.net/DTD/sodipodi-0.dtd"
   xmlns:inkscape="http://www.inkscape.org/namespaces/inkscape"
   id="レイヤー_1"
   data-name="レイヤー 1"
   viewBox="0 0 644.01001 492.70001"
   version="1.1"
   sodipodi:docname="logoc.svg"
   width="644.01001"
   height="492.70001"
   inkscape:version="0.92.2 5c3e80d, 2017-08-06">
  <metadata
     id="metadata176">
    <rdf:RDF>
      <cc:Work
         rdf:about="">
        <dc:format>image/svg+xml</dc:format>
        <dc:type
           rdf:resource="http://purl.org/dc/dcmitype/StillImage" />
        <dc:title>logoc2</dc:title>
      </cc:Work>
    </rdf:RDF>
  </metadata>
  <sodipodi:namedview
     pagecolor="#ffffff"
     bordercolor="#666666"
     borderopacity="1"
     objecttolerance="10"
     gridtolerance="10"
     guidetolerance="10"
     inkscape:pageopacity="0"
     inkscape:pageshadow="2"
     inkscape:window-width="1440"
     inkscape:window-height="855"
     id="namedview174"
     showgrid="false"
     fit-margin-top="0"
     fit-margin-left="0"
     fit-margin-right="0"
     fit-margin-bottom="0"
     inkscape:zoom="0.642"
     inkscape:cx="323.27"
     inkscape:cy="246.34"
     inkscape:window-x="0"
     inkscape:window-y="1"
     inkscape:window-maximized="1"
     inkscape:current-layer="レイヤー_1" />
  <defs
     id="defs115">
    <style
       id="style113">.cls-1{fill:#6c0;}</style>
  </defs>
  <title
     id="title117">logoc2</title>
  <path
     class="cls-1"
     d="m 268.18,16 h 72.68 a 8,8 0 0 0 0,-16 h -72.68 a 8,8 0 1 0 0,16 z"
     id="path119"
     inkscape:connector-curvature="0"
     style="fill:#66cc00" />
  <path
     class="cls-1"
     d="m 232.62,46.3 h 184 a 8,8 0 0 0 0,-16 h -184 a 8,8 0 0 0 0,16 z"
     id="path121"
     inkscape:connector-curvature="0"
     style="fill:#66cc00" />
  <path
     class="cls-1"
     d="m 186.27,76.86 h 220.57 a 8,8 0 0 0 0,-16 H 186.27 a 8,8 0 0 0 0,16 z"
     id="path123"
     inkscape:connector-curvature="0"
     style="fill:#66cc00" />
  <path
     class="cls-1"
     d="m 415.08,107.42 a 8,8 0 0 0 0,-16 H 310.45 a 8,8 0 0 0 0,16 z"
     id="path125"
     inkscape:connector-curvature="0"
     style="fill:#66cc00" />
  <path
     class="cls-1"
     d="m 178.5,107.42 h 104.12 a 8,8 0 0 0 0,-16 H 178.5 a 8,8 0 0 0 0,16 z"
     id="path127"
     inkscape:connector-curvature="0"
     style="fill:#66cc00" />
  <path
     class="cls-1"
     d="m 451.43,129.98 a 8,8 0 0 0 -8,-8 H 233.65 a 8,8 0 0 0 0,16 h 209.78 a 8,8 0 0 0 8,-8 z"
     id="path129"
     inkscape:connector-curvature="0"
     style="fill:#66cc00" />
  <path
     class="cls-1"
     d="m 443.7,160.54 a 8,8 0 0 0 -8,-8 H 213.55 a 8,8 0 0 0 0,16 H 435.7 a 8,8 0 0 0 8,-8 z"
     id="path131"
     inkscape:connector-curvature="0"
     style="fill:#66cc00" />
  <path
     class="cls-1"
     d="m 398.34,191.09 a 8,8 0 0 0 -8,-8 h -81.58 a 8,8 0 0 0 0,16 h 81.58 a 8,8 0 0 0 8,-8 z"
     id="path133"
     inkscape:connector-curvature="0"
     style="fill:#66cc00" />
  <path
     class="cls-1"
     d="m 203.75,199.09 h 74 a 8,8 0 0 0 0,-16 h -74 a 8,8 0 0 0 0,16 z"
     id="path135"
     inkscape:connector-curvature="0"
     style="fill:#66cc00" />
  <path
     class="cls-1"
     d="m 240.35,16 v 0 a 8,8 0 1 0 -8,-8 8,8 0 0 0 8,8 z"
     id="path137"
     inkscape:connector-curvature="0"
     style="fill:#66cc00" />
  <path
     class="cls-1"
     d="m 398.59,16 v 0 a 8,8 0 1 0 -8,-8 8,8 0 0 0 8,8 z"
     id="path139"
     inkscape:connector-curvature="0"
     style="fill:#66cc00" />
  <path
     class="cls-1"
     d="m 370.76,16 v 0 a 8,8 0 1 0 -8,-8 8,8 0 0 0 8,8 z"
     id="path141"
     inkscape:connector-curvature="0"
     style="fill:#66cc00" />
  <path
     class="cls-1"
     d="m 204.77,46.29 v 0 a 8,8 0 1 0 -8,-8 8,8 0 0 0 8,8 z"
     id="path143"
     inkscape:connector-curvature="0"
     style="fill:#66cc00" />
  <path
     class="cls-1"
     d="m 434.68,76.82 a 8,8 0 0 0 0,-16 v 0 a 8,8 0 1 0 0,16 z"
     id="path145"
     inkscape:connector-curvature="0"
     style="fill:#66cc00" />
  <path
     class="cls-1"
     d="m 434.71,99.43 a 8,8 0 1 0 8,-8 v 0 a 8,8 0 0 0 -8,8 z"
     id="path147"
     inkscape:connector-curvature="0"
     style="fill:#66cc00" />
  <path
     class="cls-1"
     d="m 206.07,137.96 v 0 a 8,8 0 1 0 -8,-8 8,8 0 0 0 8,8 z"
     id="path149"
     inkscape:connector-curvature="0"
     style="fill:#66cc00" />
  <path
     class="cls-1"
     d="m 178.27,137.96 v 0 a 8,8 0 1 0 -8,-8 8,8 0 0 0 8,8 z"
     id="path151"
     inkscape:connector-curvature="0"
     style="fill:#66cc00" />
  <path
     class="cls-1"
     d="m 192.36,156.13 a 7.26,7.26 0 0 0 -1,-1.21 7.83,7.83 0 0 0 -1.22,-1 7.57,7.57 0 0 0 -1.38,-0.73 7.87,7.87 0 0 0 -4.62,-0.46 8.11,8.11 0 0 0 -1.5,0.46 8.29,8.29 0 0 0 -1.38,0.73 8.3,8.3 0 0 0 -2.21,2.21 7.61,7.61 0 0 0 -0.73,1.38 7.41,7.41 0 0 0 -0.46,1.5 7.51,7.51 0 0 0 -0.16,1.56 8.06,8.06 0 0 0 2.35,5.66 7.26,7.26 0 0 0 1.21,1 8.34,8.34 0 0 0 1.38,0.74 8.94,8.94 0 0 0 1.5,0.46 8.24,8.24 0 0 0 1.56,0.15 8.35,8.35 0 0 0 1.57,-0.15 8.56,8.56 0 0 0 1.49,-0.46 7.61,7.61 0 0 0 1.38,-0.74 7.77,7.77 0 0 0 1.22,-1 8.05,8.05 0 0 0 2.34,-5.66 8.24,8.24 0 0 0 -0.15,-1.56 8.94,8.94 0 0 0 -0.46,-1.5 8.34,8.34 0 0 0 -0.73,-1.38 z"
     id="path153"
     inkscape:connector-curvature="0"
     style="fill:#66cc00" />
  <path
     class="cls-1"
     d="m 418.16,183.08 a 8,8 0 1 0 8,8 8,8 0 0 0 -8,-8 z"
     id="path155"
     inkscape:connector-curvature="0"
     style="fill:#66cc00" />
  <path
     class="cls-1"
     d="m 311.48,213.91 a 8,8 0 1 0 8,8 8,8 0 0 0 -8,-8 z"
     id="path157"
     inkscape:connector-curvature="0"
     style="fill:#66cc00" />
  <path
     class="cls-1"
     d="m 103.44,420.36 a 7.23,7.23 0 0 0 -6,3.08 c -9.69,12.76 -22.45,18 -38.44,18 -23.62,0 -42.83,-19.95 -42.83,-47.67 0,-26.85 20.24,-46.65 42.83,-46.65 13.2,0 23.91,2.78 35.06,15 a 7.15,7.15 0 0 0 5.28,2.49 c 4.55,0 9.1,-4.1 9.1,-8.65 a 7.61,7.61 0 0 0 -2.2,-5 C 93.92,337.61 76.6,332.04 59,332.04 c -34.33,0 -59,27.43 -59,61.76 0,37.4 25.38,63.22 59,63.22 24.06,0 40.93,-9.24 51.64,-23.32 a 8.24,8.24 0 0 0 1.76,-4.84 c -0.01,-4.67 -4.56,-8.5 -8.96,-8.5 z"
     id="path159"
     inkscape:connector-curvature="0"
     style="fill:#66cc00" />
  <path
     class="cls-1"
     d="m 205.54,421.36 c 0,-2.78 0.14,-5.57 0.14,-8.21 0,-5.87 0.15,-11.74 0.3,-16.87 v -0.44 c 0,-22.45 -11.89,-35.5 -38.15,-35.5 -13.93,0 -24.93,2.49 -35.35,10.27 a 7.1,7.1 0 0 0 -3.21,5.75 c 0,4 3.82,7.63 8.22,7.63 a 8,8 0 0 0 5.13,-1.91 c 7.19,-5.57 15.26,-8.22 24.94,-8.22 11.3,0 23.18,4 23.18,16.29 0,2.49 -0.88,5.28 -20.25,6.89 -13.78,1.18 -30.07,2.64 -39.16,11.15 a 26.82,26.82 0 0 0 -8.81,19.66 c 0,14.67 12.62,29.34 37.41,29.34 12,0 25.67,-4.55 33,-13.5 0.88,9.54 4.84,12.77 8.8,12.77 3.96,0 7.78,-3.09 7.78,-7.19 a 7.69,7.69 0 0 0 -1.18,-4.11 c -1.06,-1.75 -2.79,-4.8 -2.79,-23.8 z m -13.94,-3 v 0.44 c 0,12.18 -11.74,24.36 -31.25,24.36 -16,0 -22.74,-8.07 -22.74,-15.7 a 12.4,12.4 0 0 1 4,-9.24 c 6.6,-6 18.77,-6.16 28.6,-6.9 8.22,-0.58 16.87,-1.32 21.86,-4.69 -0.18,4.65 -0.47,8.61 -0.47,11.73 z"
     id="path161"
     inkscape:connector-curvature="0"
     style="fill:#66cc00" />
  <path
     class="cls-1"
     d="m 315.41,360.23 c -10.86,0 -21.57,5.87 -26.41,14.08 -4.11,-8.94 -14.08,-14.08 -25.82,-14.08 -8.8,0 -19.07,5.43 -22.15,12.47 0,-0.29 0.15,-3.81 0.15,-5.13 v -0.59 c 0,-3.67 -3.67,-5.87 -7.48,-5.87 -3.81,0 -7.34,2.2 -7.34,7 v 81.13 c 0,4.69 3.82,7 7.63,7 3.81,0 7.63,-2.35 7.63,-7 v -52.33 c 0,-10.57 9.53,-22.45 21.27,-22.45 11.15,0 15.7,8.36 15.7,21.27 v 53.55 c 0,4.69 3.81,7 7.63,7 3.66,0 7.48,-2.35 7.48,-7 v -53.69 c 0,-9.83 10.41,-21.13 21.71,-21.13 10.12,0 16.14,6.46 16.14,19.95 v 54.87 c 0,4.69 3.81,7 7.62,7 3.81,0 7.63,-2.35 7.63,-7 v -54.87 c 0,-20.98 -11.15,-34.18 -31.39,-34.18 z"
     id="path163"
     inkscape:connector-curvature="0"
     style="fill:#66cc00" />
  <path
     class="cls-1"
     d="m 414.13,360.53 c -14.08,0 -24.5,5 -31.54,14.81 v -7.92 c 0,-4.11 -3.81,-6.31 -7.63,-6.31 -3.82,0 -7.33,2.06 -7.33,6.6 v 117.8 c 0,4.84 3.81,7.19 7.63,7.19 3.82,0 7.62,-2.35 7.62,-7.19 V 441.8 c 7.19,10.26 17.31,15 31.25,15 25.67,-0.04 43.14,-20.44 43.14,-48.16 0,-27.72 -17.47,-48.11 -43.14,-48.11 z m -0.29,82 c -19.81,0 -31.69,-14.38 -31.69,-33.89 0,-19.51 11.74,-33.74 31.69,-33.74 16.28,0 28.31,14.38 28.31,33.74 0,19.36 -12.03,33.89 -28.31,33.89 z"
     id="path165"
     inkscape:connector-curvature="0"
     style="fill:#66cc00" />
  <path
     class="cls-1"
     d="m 518.43,360.23 c -11.74,0 -24.5,6.16 -28.31,14.82 v -37.56 c 0,-4.54 -3.82,-6.75 -7.63,-6.75 -4,0 -7.78,2.21 -7.78,6.75 v 111.93 c 0,4.55 4,6.9 7.78,6.9 3.78,0 7.63,-2.2 7.63,-6.75 v -45.33 c 0,-17 11.88,-29.34 28,-29.34 14.52,0 22.44,9 22.44,25.67 v 49.15 c 0,4.4 3.81,6.6 7.77,6.6 3.96,0 7.63,-2.2 7.63,-6.6 v -49.44 c 0.02,-25.53 -12.59,-40.05 -37.53,-40.05 z"
     id="path167"
     inkscape:connector-curvature="0"
     style="fill:#66cc00" />
  <path
     class="cls-1"
     d="m 638.27,364.36 c -3.22,-1.17 -10.56,-3.37 -17,-3.37 -16.87,0 -25.38,7.18 -28.61,11.73 V 367 c 0,-4 -3.67,-5.87 -7.33,-5.87 -3.82,0 -7.78,2.06 -7.78,6.6 v 81.71 c 0,4.55 4,6.9 7.78,6.9 3.78,0 7.63,-2.2 7.63,-6.75 v -46.8 c 0,-15.4 7.48,-27.14 27.72,-27.28 6.31,0 12.18,2.49 14.38,3.37 a 7.1,7.1 0 0 0 2.34,0.44 c 4,0 6.61,-3.52 6.61,-7.33 -0.01,-2.96 -1.63,-6.04 -5.74,-7.63 z"
     id="path169"
     inkscape:connector-curvature="0"
     style="fill:#66cc00" />
  <path
     class="cls-1"
     d="m 368.87,216.83 a 8,8 0 0 0 -11.13,-2.07 l -46.47,31.9 -46.47,-31.9 a 8.0050547,8.0050547 0 0 0 -9.06,13.2 l 47.53,32.61 v 60.79 a 8,8 0 0 0 16,0 v -60.79 l 47.53,-32.61 a 8,8 0 0 0 2.07,-11.13 z"
     id="path171"
     inkscape:connector-curvature="0"
     style="fill:#66cc00" />
</svg>
