<svg id="レイヤー_1" data-name="レイヤー 1" xmlns="http://www.w3.org/2000/svg" viewBox="0 0 654.24 514.55"><defs><style>.cls-1,.cls-3{fill:none;stroke:#5bba00;stroke-linecap:round;stroke-width:16px;}.cls-1{stroke-miterlimit:10;}.cls-2{font-size:146.69px;fill:#5bba00;font-family:UDMarugo_LargePr6N-DB-83pv-RKSJ-H, FOT-UDMarugo_Large Pr6N;}.cls-3{stroke-linejoin:round;}</style></defs><title>logoc</title><line class="cls-1" x1="275.5" y1="8" x2="348.18" y2="8"/><line class="cls-1" x1="239.93" y1="38.3" x2="423.95" y2="38.3"/><line class="cls-1" x1="193.54" y1="68.86" x2="414.15" y2="68.86"/><line class="cls-1" x1="317.77" y1="99.42" x2="422.4" y2="99.42"/><line class="cls-1" x1="185.81" y1="99.42" x2="289.93" y2="99.42"/><line class="cls-1" x1="240.97" y1="129.97" x2="450.75" y2="129.97"/><line class="cls-1" x1="220.86" y1="160.53" x2="443.02" y2="160.53"/><line class="cls-1" x1="316.08" y1="191.09" x2="397.66" y2="191.09"/><line class="cls-1" x1="211.07" y1="191.09" x2="285.08" y2="191.09"/><line class="cls-1" x1="247.67" y1="8" x2="247.67" y2="8"/><line class="cls-1" x1="405.91" y1="8" x2="405.91" y2="8"/><line class="cls-1" x1="378.08" y1="8" x2="378.07" y2="8"/><line class="cls-1" x1="212.09" y1="38.28" x2="212.08" y2="38.28"/><line class="cls-1" x1="441.99" y1="68.82" x2="441.99" y2="68.82"/><line class="cls-1" x1="450.02" y1="99.43" x2="450.03" y2="99.43"/><line class="cls-1" x1="213.39" y1="129.95" x2="213.38" y2="129.95"/><line class="cls-1" x1="185.55" y1="129.95" x2="185.55" y2="129.95"/><line class="cls-1" x1="193.03" y1="160.57" x2="193.03" y2="160.57"/><line class="cls-1" x1="425.48" y1="191.08" x2="425.48" y2="191.08"/><line class="cls-1" x1="318.79" y1="221.91" x2="318.8" y2="221.91"/><text class="cls-2" transform="translate(0 450.45)">Camphr</text><line class="cls-3" x1="318.59" y1="256.36" x2="318.59" y2="321.36"/><line class="cls-3" x1="318.59" y1="256.36" x2="369.59" y2="221.36"/><line class="cls-3" x1="318.59" y1="256.36" x2="267.59" y2="221.36"/></svg>