<svg id="レイヤー_1" data-name="レイヤー 1" xmlns="http://www.w3.org/2000/svg" viewBox="0 0 1000 1000"><defs><style>.cls-1{fill:#6c0;}</style></defs><title>logoc2</title><path class="cls-1" d="M558.3,241.31H417.19a15.53,15.53,0,1,1,0-31.06H558.3a15.53,15.53,0,1,1,0,31.06Z"/><path class="cls-1" d="M705.42,300.15H348.13a15.54,15.54,0,0,1,0-31.07H705.42a15.54,15.54,0,1,1,0,31.07Z"/><path class="cls-1" d="M686.41,359.48H258.06a15.53,15.53,0,0,1,0-31.06H686.41a15.53,15.53,0,1,1,0,31.06Z"/><path class="cls-1" d="M702.42,418.82H499.26a15.54,15.54,0,1,1,0-31.07H702.42a15.54,15.54,0,1,1,0,31.07Z"/><path class="cls-1" d="M445.21,418.82H243.05a15.54,15.54,0,1,1,0-31.07H445.21a15.54,15.54,0,1,1,0,31.07Z"/><path class="cls-1" d="M757.47,478.15H350.14a15.54,15.54,0,1,1,0-31.07H757.47a15.54,15.54,0,0,1,0,31.07Z"/><path class="cls-1" d="M742.45,537.48H311.1a15.53,15.53,0,0,1,0-31.06H742.45a15.53,15.53,0,1,1,0,31.06Z"/><path class="cls-1" d="M654.38,596.82H496a15.54,15.54,0,1,1,0-31.07h158.4a15.54,15.54,0,1,1,0,31.07Z"/><path class="cls-1" d="M435.79,596.82H292.09a15.54,15.54,0,1,1,0-31.07h143.7a15.54,15.54,0,0,1,0,31.07Z"/><path class="cls-1" d="M363.16,241.31h0a15.53,15.53,0,1,1,15.53-15.53A15.53,15.53,0,0,1,363.15,241.31Z"/><path class="cls-1" d="M670.41,241.31h0a15.53,15.53,0,1,1,15.54-15.53A15.53,15.53,0,0,1,670.4,241.31Z"/><path class="cls-1" d="M616.36,241.31h0a15.53,15.53,0,1,1,15.54-15.53A15.53,15.53,0,0,1,616.35,241.31Z"/><path class="cls-1" d="M294.06,300.11h0a15.53,15.53,0,1,1,15.53-15.53A15.53,15.53,0,0,1,294.06,300.11Z"/><path class="cls-1" d="M740.46,359.41a15.54,15.54,0,0,1,0-31.07h0a15.54,15.54,0,1,1,0,31.07Z"/><path class="cls-1" d="M756.07,418.85a15.54,15.54,0,1,1,0-31.07h0a15.54,15.54,0,0,1,0,31.07Z"/><path class="cls-1" d="M296.59,478.11h0a15.54,15.54,0,1,1,15.54-15.54A15.54,15.54,0,0,1,296.58,478.11Z"/><path class="cls-1" d="M242.54,478.11h0a15.54,15.54,0,1,1,15.54-15.54A15.53,15.53,0,0,1,242.53,478.11Z"/><path class="cls-1" d="M257.05,537.55a16.36,16.36,0,0,1-3-.29,17.78,17.78,0,0,1-2.91-.9,16.08,16.08,0,0,1-2.68-1.43,14.58,14.58,0,0,1-2.35-1.92,15.69,15.69,0,0,1-4.56-11,16.4,16.4,0,0,1,.31-3,16,16,0,0,1,2.31-5.59,13.78,13.78,0,0,1,1.94-2.35,14.76,14.76,0,0,1,2.35-1.95,16.73,16.73,0,0,1,2.68-1.41,16,16,0,0,1,2.91-.9,15.55,15.55,0,0,1,6.08,0,15.37,15.37,0,0,1,2.89.9,14.53,14.53,0,0,1,2.68,1.41,15.37,15.37,0,0,1,2.37,1.95A14.21,14.21,0,0,1,270,513.4a16,16,0,0,1,1.43,2.68,17.78,17.78,0,0,1,.9,2.91,16.36,16.36,0,0,1,.29,3A15.63,15.63,0,0,1,268,533a15.19,15.19,0,0,1-2.37,1.92,14,14,0,0,1-2.68,1.43,17,17,0,0,1-2.89.9A16.58,16.58,0,0,1,257.05,537.55Z"/><path class="cls-1" d="M708.41,596.79a15.54,15.54,0,0,1,0-31.07h0a15.54,15.54,0,1,1,0,31.07Z"/><path class="cls-1" d="M501.26,656.65a15.53,15.53,0,1,1,0-31.06h0a15.53,15.53,0,1,1,0,31.06Z"/><path class="cls-1" d="M500.85,849.75a15.53,15.53,0,0,1-15.53-15.53V708a15.53,15.53,0,1,1,31.06,0V834.22A15.53,15.53,0,0,1,500.85,849.75Z"/><path class="cls-1" d="M500.86,723.55a15.54,15.54,0,0,1-8.8-28.35l99-68a15.53,15.53,0,0,1,17.57,25.62l-99,68A15.51,15.51,0,0,1,500.86,723.55Z"/><path class="cls-1" d="M500.84,723.55a15.51,15.51,0,0,1-8.78-2.73l-99-68a15.53,15.53,0,0,1,17.57-25.62l99,68a15.54,15.54,0,0,1-8.8,28.35Z"/></svg>